<svg width="32" height="32" viewBox="0 0 32 32" fill="none" xmlns="http://www.w3.org/2000/svg">
  <rect width="32" height="32" rx="8" fill="url(#paint0_linear)"/>
  <path d="M16 24C13.12 24 10.8 21.68 10.8 18.8C10.8 15.92 13.12 13.6 16 13.6C17.92 13.6 19.6 14.72 20.16 16.4H24C23.28 12.92 19.92 10 16 10C11.64 10 8 13.64 8 18C8 22.36 11.64 26 16 26C19.92 26 23.28 23.08 24 19.6H20.16C19.6 21.28 17.92 24 16 24Z" fill="white"/>
  <defs>
    <linearGradient id="paint0_linear" x1="0" y1="0" x2="32" y2="32" gradientUnits="userSpaceOnUse">
      <stop stop-color="#1E40AF"/>
      <stop offset="1" stop-color="#4F46E5"/>
    </linearGradient>
  </defs>
</svg> 